<svg width="16" height="16" viewBox="0 0 16 16" fill="none" xmlns="http://www.w3.org/2000/svg">
<path d="M9.33337 8C9.33337 8.73333 8.73337 9.33333 8.00004 9.33333C7.26671 9.33333 6.66671 8.73333 6.66671 8C6.66671 7.26667 7.26671 6.66667 8.00004 6.66667C8.73337 6.66667 9.33337 7.26667 9.33337 8ZM5.65337 5.63333L5.18004 5.16667C4.45337 5.88667 4.00004 6.89333 4.00004 8C4.00004 9.10667 4.45337 10.1133 5.18004 10.8333L5.65337 10.36C5.04671 9.76 4.66671 8.92666 4.66671 8C4.66671 7.07333 5.04671 6.24 5.65337 5.63333ZM10.82 5.16667L10.3467 5.64C10.9534 6.24 11.3334 7.07333 11.3334 8C11.3334 8.92666 10.9534 9.76 10.3467 10.3667L10.82 10.84C11.5467 10.1133 12 9.10667 12 8C12 6.89333 11.5467 5.88667 10.82 5.16667ZM3.76671 3.75333L3.30004 3.28C2.08671 4.48667 1.33337 6.16 1.33337 8C1.33337 9.84 2.08671 11.5133 3.30004 12.72L3.77337 12.2467C2.68004 11.16 2.00004 9.66 2.00004 8C2.00004 6.34 2.68004 4.84 3.76671 3.75333ZM12.7 3.28L12.2267 3.75333C13.32 4.84 14 6.34 14 8C14 9.66 13.32 11.16 12.2334 12.2467L12.7067 12.72C13.9134 11.5133 14.6667 9.84 14.6667 8C14.6667 6.16 13.9134 4.48667 12.7 3.28Z" fill="#FF0000"/>
</svg>
