<svg width="24" height="24" viewBox="0 0 24 24" fill="none" xmlns="http://www.w3.org/2000/svg">
<path d="M10.4004 2.39999C5.99159 2.39999 2.40039 5.99119 2.40039 10.4C2.40039 14.8088 5.99159 18.4 10.4004 18.4C12.3176 18.4 14.0783 17.7192 15.4582 16.5891L20.2348 21.3656C20.3085 21.4424 20.3968 21.5037 20.4945 21.5459C20.5922 21.5882 20.6973 21.6105 20.8038 21.6115C20.9102 21.6126 21.0158 21.5925 21.1143 21.5522C21.2129 21.512 21.3024 21.4525 21.3776 21.3773C21.4529 21.302 21.5124 21.2125 21.5526 21.1139C21.5929 21.0154 21.613 20.9098 21.6119 20.8034C21.6109 20.6969 21.5886 20.5918 21.5463 20.4941C21.5041 20.3964 21.4428 20.3081 21.366 20.2344L16.5895 15.4578C17.7196 14.0779 18.4004 12.3172 18.4004 10.4C18.4004 5.99119 14.8092 2.39999 10.4004 2.39999ZM10.4004 3.99999C13.9445 3.99999 16.8004 6.8559 16.8004 10.4C16.8004 13.9441 13.9445 16.8 10.4004 16.8C6.85629 16.8 4.00039 13.9441 4.00039 10.4C4.00039 6.8559 6.85629 3.99999 10.4004 3.99999Z" fill="white"/>
</svg>
